<svg xmlns="http://www.w3.org/2000/svg" viewBox="0 0 200 80">
  <g fill="#333">
    <path d="M50,20 C36.7,20 26,30.7 26,44 C26,57.3 36.7,68 50,68 C63.3,68 74,57.3 74,44 C74,30.7 63.3,20 50,20 Z M50,64 C38.9,64 30,55.1 30,44 C30,32.9 38.9,24 50,24 C61.1,24 70,32.9 70,44 C70,55.1 61.1,64 50,64 Z"/>
    <circle cx="50" cy="24" r="4"/>
    <circle cx="50" cy="64" r="4"/>
    <circle cx="30" cy="44" r="4"/>
    <circle cx="70" cy="44" r="4"/>
    <path d="M30,44 L70,44 M50,24 L50,64 M30,44 L70,64 M30,64 L70,44"/>
    <path d="M90,25 L90,65 L100,65 C110,65 120,55 120,45 C120,35 110,25 100,25 L90,25 Z M95,30 L100,30 C107.5,30 115,37.5 115,45 C115,52.5 107.5,60 100,60 L95,60 L95,30 Z"/>
    <path d="M130,25 L130,65 L160,65 L160,60 L135,60 L135,25 L130,25 Z"/>
    <path d="M170,25 L170,65 L175,65 L175,25 L170,25 Z"/>
    <path d="M185,25 L185,65 L190,65 L190,50 L200,65 L205,65 L195,50 L205,35 L200,35 L190,50 L190,25 L185,25 Z"/>
    <path d="M130,25 L130,30 L160,30 L160,25 L130,25 Z"/>
  </g>
</svg>